<svg xmlns="http://www.w3.org/2000/svg" xmlns:xlink="http://www.w3.org/1999/xlink" fill="none" version="1.1" width="300" height="300" viewBox="0 0 300 300"><defs><clipPath id="master_svg0_0_94"><rect x="0" y="0" width="300" height="300" rx="0"/></clipPath></defs><g clip-path="url(#master_svg0_0_94)"><g><rect x="0" y="0" width="300" height="300" rx="32" fill="#23396B" fill-opacity="1"/></g><g><g><path d="M169.90018768310546,270.5660400390625C169.90018768310546,270.5660400390625,166.50018768310548,268.5660400390625,166.50018768310548,268.5660400390625C166.50018768310548,268.5660400390625,163.20018768310547,270.5660400390625,163.20018768310547,270.5660400390625C166.49998768310547,272.1660400390625,166.50018768310548,272.1660400390625,169.90018768310546,270.5660400390625C169.90018768310546,270.5660400390625,169.90018768310546,270.5660400390625,169.90018768310546,270.5660400390625Z" fill="#F4F4F4" fill-opacity="1"/></g><g transform="matrix(0.866025447845459,-0.5,0.5,0.866025447845459,-81.82987776117079,88.49780261381238)"><path d="M130.13532790527344,283.5653261230469C123.01182790527344,283.5645261230469,123.01607790527343,283.56702612304684,126.51608790527344,277.5048261230469C126.51608790527344,277.5048261230469,145.94642790527342,197.00643062304687,145.94642790527342,197.00643062304687C173.41612790527344,196.6941811230469,173.41612790527344,196.69418912304687,186.59182790527345,220.47312612304688C186.59182790527345,220.47312612304688,204.22372790527345,251.07642612304687,204.22372790527345,251.07642612304687C222.96342790527342,283.5758261230469,222.96342790527342,283.5758261230469,185.46292790527343,283.5711261230469C185.46292790527343,283.5711261230469,130.13532790527344,283.5653261230469,130.13532790527344,283.5653261230469C130.13532790527344,283.5653261230469,130.13532790527344,283.5653261230469,130.13532790527344,283.5653261230469Z" fill="#F4F4F4" fill-opacity="1"/></g><g transform="matrix(0,1.0000001192092896,-1.0000001192092896,0,195.6562432081329,-137.65626485711937)"><path d="M178.97224237060547,83.16019738045836C160.22226237060548,115.65619738045835,160.22226237060548,115.65619738045835,197.72224237060547,115.65619738045835C197.72224237060547,115.65619738045835,353.2222423706055,115.65619738045835,353.2222423706055,115.65619738045835C360.2222423706055,115.65619738045835,360.2222423706055,115.65619738045835,363.7222423706055,109.59459738045835C363.7222423706055,109.59459738045835,406.7032423706055,35.15624738045835,406.7032423706055,35.15624738045835C407.57524237060545,33.646407380458356,408.23124237060546,32.510657380458355,408.61824237060546,31.656247380458353C408.8332423706055,31.191107380458355,408.94224237060547,30.966097380458354,409.0622423706055,30.656247380458353C409.32124237060543,30.008477380458352,409.4202423706055,29.649776380458352,409.42224237060543,29.058122380458354C409.42224237060543,29.058122380458354,228.97224237060547,28.999997380458353,228.97224237060547,28.999997380458353C210.22224237060547,28.999997380457444,210.22224237060547,28.999997380458353,200.84724237060547,45.24799738045836C200.84724237060547,45.24799738045836,178.97224237060547,83.16019738045836,178.97224237060547,83.16019738045836C178.97224237060547,83.16019738045836,178.97224237060547,83.16019738045836,178.97224237060547,83.16019738045836Z" fill="#FFFFFF" fill-opacity="1"/></g></g></g></svg>